<svg xmlns="http://www.w3.org/2000/svg" width="548.911" height="285.12" viewBox="0 0 548.911 285.12">
  <g id="Grupo_330" data-name="Grupo 330" transform="translate(280.586 2417.692)">
    <path id="Trazado_36" data-name="Trazado 36" d="M220.726,556.437l-7.486-3.5.3,2.557-10.192-5.767.621-1.257,4.763,1.861c-.282-1.621-.526-3.024-.675-3.877l-9.311-4.935-3.175,2.85,6.79,9.328,1.411-.678.573.606-3.56,4.008c1.58.217,2.776.456,3.983.534,4.772.309,9.546.749,14.322.772,2.588.012,5.188-1.053,7.768-.993,1.628.038,3.3,1.145,4.778,2.05.26.159-.322,1.694-.551,2.762l13.018,6.465c1.985,4.178,8.1,2.745,13.194,6.229-5.9,2.172-10.915,4.252-16.086,5.832-2.742.837-5.619,1.777-8.624-.452-.92-.683-4.244-2.516-5.612,1-.17.439-1.7.574-2.561.487-10.886-1.1-20.343-4.985-26.741-14.364-.976-1.43-1.153-3.405-1.846-5.588-2.96.567-4.648-1.3-4.366-5.347.149-2.127,0-4.179-2.816-4.9-.559-.143-.648-2.116-1.865-3.641l-2.786,7.383-5.523.719q.006.635.011,1.268l5.978,2.462c-.195,3.27-.8,6.217-4.1,8.533-1.787,1.253-2.075,4.541-3.229,6.815-4.435,8.741-8.859,17.49-13.479,26.133-1.447,2.707-4.327,4.865-5.092,7.671-1.426,5.232-5.33,8.569-8.044,12.794-.212.328.067.972.165,1.935l5.079-3.2-9.107,14.492c-.233-.258-1.537-1.091-1.451-1.739.141-1.054,1.19-1.988,1.839-2.947-2.471-1.067-4.831.621-5.151,3.711-.072.7-.733,1.337-1.136,1.995-.51.833-1.654,1.885-1.447,2.447,1.152,3.137-1.014,4.818-2.547,6.859-3.729,4.965-7.4,9.975-11.346,15.311h-6.461c-.288,1.032-.587,2.107-.877,3.149-.292.133-.632.4-.75.326-5.764-3.713-12.209-2.723-18.548-3.026-3.045-.146-6.011-1.939-9.323-3.094-.89,2.87-2.577,3.7-6.454,3.09-4.479-.7-9.211-.554-13.829-1.121-1.616-.2-3.342.5-6.176.993,1.623-1.931,2.562-3.206,3.659-4.328,17.139-17.537,34.007-35.348,47.629-55.829,6.3-9.477,11.5-19.7,17.131-29.614a43.973,43.973,0,0,0,2.034-5.167c-3.7,1.42-6.973,1.99-9.39,3.74-5.626,4.076-12.276,4.534-18.54,5.145-26.289,2.567-49.174-4.821-67.008-25.107-8.464-9.626-13.253-21-15.065-33.635a8.718,8.718,0,0,1,.291-3.927c1.22-3.56,3.661-4.351,7.5-2.037l2.171-6.33-1.089-1.041L22.675,509c.2-3.744.214-7.39.628-10.99.388-3.38,1.195-6.711,1.816-10.064A57.11,57.11,0,0,1,39.83,459.343c.522-.567,2.11-.557,3.029-.267a31.986,31.986,0,0,1,4.459,2.116c1.124-1.463,2.075-2.7,3.158-4.107-.835-1.645-1.774-3.495-2.758-5.431,29.915-30.08,111.462-30.491,134.812,33.812h-3.8q-.137.642-.274,1.285c4.248.3,6.133,2.629,6.522,6.591.62,6.317,1.647,12.6,2.111,18.922.134,1.834-1.071,3.765-1.867,6.308l2.353.983c2-4.607,3.81-9.007,5.814-13.315a33.723,33.723,0,0,1,15.584-15.954c1.407-.727,3.3-.507,5.3-.767-.339-2.467,2.546-2.238,4.769-2.935,13.586-4.266,26.216-1.882,37.683,6.084,8.5,5.9,13.161,14.332,15.587,24.549,2.988,12.586,2.936,24.844-1.058,37.017-1.256,3.828-3.631,7.306-5.655,10.851a4.019,4.019,0,0,1-2.438,1.814c-4.168.714-8.42,1.817-12.556,1.53-2.823-.2-5.728-2.136-8.182-3.88-2.329-1.657-4.119-4.073-6.4-6.411,1.331-1.541,3.038-3.331,4.528-5.286a15.223,15.223,0,0,0,3.241-11.863c-.474-3.647,1.06-7.51,1.041-11.274a52.26,52.26,0,0,0-1.422-11,12.969,12.969,0,0,0-11.07-10.014c-5.509-.659-9.755,1.577-12.107,6.509-1.932,4.054-5.4,4.658-9.1,5.267-2.537.416-5.342.218-6.661,3.356-.243.578-1.925.472-2.877.85a8.34,8.34,0,0,0-3.756,2.6c3.3-1.547,8.377,1.218,10.128-4.2.175-.541,1.852-.786,2.848-.834a24.07,24.07,0,0,1,7.458.64l-3.342,1.948c3.927,9.957-1.8,21.793,6.722,30.933l-.928.668m-81.932-63.571a56.445,56.445,0,0,1-4.121-4.729A37.458,37.458,0,0,0,85.129,477.2c-12.763,7.436-18.843,21.669-15.706,35.3,6.045,26.261,39.593,32.187,56.424,18.216,2.039-1.694,4.045-3.427,6.06-5.136,3.008,1.834,5.664,2.264,8.507-.238,1.388-1.221,3.27-1.1,4.017,1.279a6.279,6.279,0,0,0,.919,1.373l2.241-1.4c-.25-2.235-.45-4.013-.677-6.041-3.6-2.576-5.791,1.825-8.9,2.486-1.246.265-2.525.38-3.789.564a12.713,12.713,0,0,1,.869-3.535,28.2,28.2,0,0,0,3.77-20.256c-.446-2.343-.07-4.842-.07-6.946m10.806-3.235c.806,1.561,1.525,2.956,2.388,4.628l2.657-3.633,5.268,5.287c1.925-3.756,4.174-3.2,6.964-.21,1.14,1.221,3.236,1.551,4.9,2.286-.709-1.776-2.008-2.7-2.613-3.961a88.335,88.335,0,0,1-3.457-8.668c-1.021-2.868-3.312-2.64-5.588-2.493-2.075.134-3.446.863-3.534,3.364-.027.746-1.426,1.679-2.383,2.1a32.126,32.126,0,0,1-4.6,1.3m-5.726-3.807c4.833-1.136,3.148-5.372,3.972-8.22.234-.808-2.209-3.418-2.695-3.237a77.634,77.634,0,0,0-8.753,4.392l3.093,2.423-2.358,8.974,4.935.642c0-.01.153.468.3.948.18.58.354,1.162.555,1.824,2.615-1.775,3.013-4.862.949-7.746m12.367,13.748c-5.45.24-5.6.1-6.555-5.51a5.711,5.711,0,0,0-.694-2.244,2.113,2.113,0,0,0-1.642-.615c-.317.016-.744.669-.872,1.108-.471,1.609-.844,3.247-1.24,4.877-.658,2.712-1.248,5.411,1.2,7.07,1.692-.576,3.086-1.585,4.15-1.311,2.988.767,4.424-.6,5.654-3.375M31.039,521.6l-5.407,1.993c.087.3.175.6.262.9q2.838,0,5.671.006.6,1.215,1.2,2.437l3.514-4.318-4.846-5.335c-.2,2.165-.288,3.171-.392,4.319M49.2,484.2l-2.475-.352q-.876,3.051-1.753,6.1c1.305-.308,3.319-.227,3.753-1.015.7-1.279.37-3.128.475-4.736m69.148,62.989q-.405-.835-.808-1.671c-1.818.93-3.664,1.815-5.385,2.9-.108.068.536,2.209,1.209,2.494,4.091,1.738,2.407-3.481,4.984-3.721m41.266-83.535.928.862c3.937-.7,5.432-2.555,4.222-6.462l-5.15,5.6" transform="translate(-303.261 -2831)" fill="#161615"/>
    <path id="Trazado_37" data-name="Trazado 37" d="M281.612,558.075c-1.307-1.792-2.73-2.834-2.734-3.882-.1-21.995-.046-43.99-.007-65.984a3.783,3.783,0,0,1,.376-.969h27.376v9l.947.464,4.118-3.929c10.085-9.621,25.048-10.254,36.256-4.154,8.142,4.431,10.217,12.34,10.487,20.621.585,17.973.685,35.963.921,53.946.092,7.077.014,14.156-.461,21.593-3.487-6.428-9.184-3.636-13.985-4.161a8.3,8.3,0,0,1-4.583-1.74,6.954,6.954,0,0,1-1.885,1.315c-2.24.617-4.528,1.056-6.8,1.564a29.94,29.94,0,0,1-1.08-5.495c-.2-18.529-.285-37.059-.4-55.588-.035-5.755-1.849-8.9-6.107-10.529-3.6-1.376-11.991.223-14.267,2.891a5.111,5.111,0,0,0-.9,2.886c-.31,5.584-.61,11.172-.734,16.763-.325,14.655-.535,29.313-.863,43.968a25.336,25.336,0,0,1-1.065,4.539l-2.367-3.225-.774.243q.355,1.822.71,3.644l-1.044.751c-.858-1.2-1.731-2.394-2.57-3.609a10.016,10.016,0,0,0-1.4-2.069c-.231-.2-1.42.192-1.619.589-2.3,4.619-6.639,2.965-10.277,3.384a9.894,9.894,0,0,1-2.525-.415c-.04-.882-.081-1.8-.163-3.626-2.216,2.974-3.847,2.654-5.072.479l8.008-5.8-3.4-4.463-3.764.713c-3.946-4.419.774-7.315,1.646-9.707" transform="translate(-303.261 -2831)" fill="#161615"/>
    <path id="Trazado_38" data-name="Trazado 38" d="M527.74,541.4c-17.009,0-32.98-.007-48.952.005-5.349,0-5.543.273-4.339,5.528,1.548,6.753,5.738,10.2,12.544,11.379,8.774,1.523,16.531-.657,23.839-5.3.78-.495,1.6-.927,2.412-1.369.318-.173.666-.292,1.034-.45l11.729,16.653c-5.385,5.88-11.916,9.367-19.006,11.722a58.207,58.207,0,0,1-31.818,1.548c-13.461-3.119-23.03-11.4-27.693-24.486-5.785-16.23-5.859-32.637,1.553-48.381,6.93-14.718,18.956-22.309,35.369-22.878,8.362-.291,16.443.45,23.875,4.689,11.364,6.482,16.517,16.945,18.119,29.33.914,7.06.9,14.24,1.334,22.008m-40.148-17.081v.157c1.6,0,3.2.035,4.792-.006,8.152-.212,9.869-3.257,6.042-10.767a12.545,12.545,0,0,0-1.8-2.6c-3.824-4.3-9.729-5.307-15.252-2.664-3.943,1.887-7.78,9.157-6.722,13.407a4.142,4.142,0,0,0,2.982,2.363c3.294.311,6.637.112,9.961.112" transform="translate(-303.261 -2831)" fill="#161615"/>
    <path id="Trazado_39" data-name="Trazado 39" d="M444.914,556.014c-5.217,14.949-19.783,25.856-35.108,26.2-12.659.283-24.715-1.593-33.774-11.749A42.1,42.1,0,0,1,364.965,542.6c-.209-10.219-.513-20.447,2.562-30.443,6.61-21.493,27.869-30.616,47.339-26.447,15.613,3.344,22.591,9.754,30.033,27.5-.944.353-1.868.72-2.807,1.047-6.122,2.131-12.3,4.118-18.35,6.435-3.1,1.188-4.552.874-5.689-2.649-2.729-8.458-8.707-11.5-16.233-8.583-5.723,2.22-7.715,7.453-7.935,12.786a208.209,208.209,0,0,0,.736,24.691c.448,5.743,5.843,10.886,10.764,11.25a12.236,12.236,0,0,0,12.968-9.011c.916-2.958,1.947-3.458,4.748-2.259,5.717,2.448,11.6,4.507,17.38,6.808a48.416,48.416,0,0,1,4.433,2.286" transform="translate(-303.261 -2831)" fill="#161615"/>
    <path id="Trazado_40" data-name="Trazado 40" d="M186.972,478.091V413.967h15.607l-1.873,1.585c.627,1.733,1.525,3.08,1.544,4.439.178,13.32.211,26.642.283,39.963.008,1.447,0,2.893,0,5.041h22.024c.2,3.5.37,6.331.535,9.16l.655.175c1.047-3.04,2.139-6.066,3.134-9.123,5.07-15.575,10.327-31.094,15.028-46.779,1.267-4.227,3.148-5.472,7.206-5.039a91.219,91.219,0,0,0,9.417.064q10.094,32.278,20.069,64.185a7.047,7.047,0,0,1-1.4.5c-4.392.016-9.7,1.517-12.908-.431-2.922-1.774-3.57-7.3-5.314-11.387H244.612c-1.308,3.847-2.646,7.78-4,11.771Zm71.941-24.126c-1.84-7.087-3.512-13.525-5.183-19.963l-1.525.1c-1.57,6.5-3.139,13-4.8,19.863Z" transform="translate(-303.261 -2831)" fill="#161615"/>
    <path id="Trazado_41" data-name="Trazado 41" d="M411.1,592.865h14.429v62.152c-4.283,0-8.628.181-12.936-.134-1.012-.074-2.243-1.662-2.792-2.828-4.395-9.339-8.646-18.745-12.952-28.126-.635-1.383-1.327-2.74-1.992-4.109l-1.134.112v34.925H379.567V592.6c4.19,0,8.293-.175,12.362.121,1.032.076,2.344,1.468,2.866,2.569,4.535,9.572,8.917,19.216,13.351,28.836.6,1.3,1.245,2.59,1.868,3.884l1.082-.052Z" transform="translate(-303.261 -2831)" fill="#161615"/>
    <path id="Trazado_42" data-name="Trazado 42" d="M187.173,654.927V592.965c7.921,0,15.344-.119,22.759.056a61.575,61.575,0,0,1,9.446,1.2c10.075,1.824,13.56,18.647,6.522,25.034a48.735,48.735,0,0,0-3.436,3.89c7.72,3.853,10,10.06,8.451,17.926-1.53,7.745-7.537,13.13-16.821,13.734-8.876.576-17.819.124-26.921.124m15.378-11.976c2.841,0,5.3.582,7.259-.15a13.341,13.341,0,0,0,6.291-4.5c1.758-2.652.987-6.369-1.869-7.62-3.189-1.4-7.051-1.3-10.639-1.67-.268-.027-.971,1.46-.994,2.257-.108,3.694-.048,7.391-.048,11.687m.142-25.169c4.556,1.495,9.137.693,11.137-1.9a6.3,6.3,0,0,0,.12-7.788c-2.817-4.189-7.226-2.491-11.257-3.026Z" transform="translate(-303.261 -2831)" fill="#161615"/>
    <path id="Trazado_43" data-name="Trazado 43" d="M521.207,655.036c-5.1,0-9.627.176-14.124-.119a4.882,4.882,0,0,1-3.3-2.529c-2.468-5.264-4.45-10.76-7.013-15.972-.789-1.6-2.867-2.572-4.354-3.831l-1.324.883v21.3H475.671V592.142c9.857.509,19.674.543,29.362,1.68,6.672.783,11.4,5.3,12.942,11.957,1.607,6.957,1.356,14.16-4.523,19.165-3.746,3.189-3.717,5.887-1.813,9.731,3.213,6.485,6.172,13.1,9.568,20.361m-30.666-34.048c9.583,1.77,13.692-1.344,12.785-9.976-.477-4.545-7.6-8.186-11.488-5.779a3.116,3.116,0,0,0-1.24,2.223c-.116,4.488-.057,8.98-.057,13.532" transform="translate(-303.261 -2831)" fill="#161615"/>
    <path id="Trazado_44" data-name="Trazado 44" d="M283.138,625.8c-.909,4.5-1.724,9.579-2.976,14.545-2.9,11.5-15.251,16.529-23.522,15.757-13.354-1.248-20.389-9.431-21.846-20.512a83.69,83.69,0,0,1,.365-25.648c2.152-11.709,11.309-18.287,22.334-18.278,11.443.01,20.29,6.795,23.322,18.5,1.252,4.833,1.509,9.924,2.323,15.636m-15.536.651c-.443-5.312-.684-9.416-1.152-13.494-.505-4.4-4.037-8.061-7.807-8.359-4.2-.332-7.265,1.683-8.539,6.134a49.736,49.736,0,0,0,.066,26.643c1.035,3.957,4.653,6.578,8.192,6.27a7.749,7.749,0,0,0,7.3-6.27c.939-3.962,1.437-8.028,1.935-10.924" transform="translate(-303.261 -2831)" fill="#161615"/>
    <path id="Trazado_45" data-name="Trazado 45" d="M571.586,623.841c-1.084,5.836-1.478,11.469-3.227,16.643-3.708,10.97-11.937,15.787-24.524,15.3-8.831-.339-17.161-7.223-19.71-16.986-2.759-10.572-2.914-21.295.69-31.721a22.458,22.458,0,0,1,21.925-15.324c9.244.3,18.423,4.974,21.5,15.227,1.651,5.5,2.281,11.307,3.349,16.857m-34.284.715.393.019v9.188c0,.133,0,.267.008.4.24,4.794,3.609,9.06,7.518,9.522q6.977.824,9.387-7.235a7.467,7.467,0,0,0,.558-1.905c.053-7.052.349-14.121-.036-21.151-.263-4.824-3.812-8.36-7.446-8.624-5.489-.4-7.869,1.181-9.343,7.552-.912,3.947-.73,8.147-1.039,12.234" transform="translate(-303.261 -2831)" fill="#161615"/>
    <path id="Trazado_46" data-name="Trazado 46" d="M374.981,655.016c-4.574,0-8.706-.139-12.822.054-2.415.112-3.126-1.029-3.665-3.09-2.617-9.995-.577-8.036-10.491-8.231-8.06-.157-8.273-.089-10.033,7.454-.74,3.172-2.166,4.044-5.155,3.878-3.706-.206-7.431-.05-11.719-.05,2.175-6.751,4.162-13.039,6.226-19.3,4.427-13.431,8.957-26.829,13.282-40.292.7-2.172,1.61-2.863,3.87-2.9,10.855-.173,10.908-.263,14.207,10.112q7.746,24.372,15.358,48.786c.315,1.006.54,2.04.942,3.578m-21.694-23.427c-1.489-6.508-2.9-12.666-4.306-18.823l-1.158-.024c-1.551,6.166-3.1,12.333-4.741,18.847Z" transform="translate(-303.261 -2831)" fill="#161615"/>
    <path id="Trazado_47" data-name="Trazado 47" d="M448.259,605.124v12.21h19.672c-.217,3.908-.411,7.418-.643,11.6h-18.9v14.008h22.63v11.725H433.315c-.083-.839-.223-1.6-.225-2.372-.046-18.508-.027-37.016-.16-55.523-.022-2.862.84-4.151,3.794-4.135,11.309.063,22.617.025,34.262.025v12.46Z" transform="translate(-303.261 -2831)" fill="#161615"/>
    <path id="Trazado_48" data-name="Trazado 48" d="M313.346,654.826H297.881V605.377H282.769v-12.47h46.038v11.662l-15.461.753Z" transform="translate(-303.261 -2831)" fill="#161615"/>
    <path id="Trazado_49" data-name="Trazado 49" d="M217.033,666.238h3.9c.344,4.519.681,8.927,1.043,13.679,6.267-3.85,7.416-13.224,15.48-14.216l1.026,1.029c-2.422,3.4-4.689,6.929-7.317,10.164-1.925,2.369-1.84,4.333-.171,6.716,3.023,4.312,5.877,8.742,9.448,14.09,2.592-6.951,4.719-12.694,6.875-18.426,1.3-3.457,2.538-6.944,4.026-10.319.52-1.181,1.7-2.07,2.581-3.092,1.08.975,2.678,1.745,3.156,2.957,3.638,9.212,7.058,18.511,10.679,28.133-3.071.916-5.6,1.737-6.126-2.362-.492-3.826-2.65-5.033-6.26-4.438a11.27,11.27,0,0,1-3.587,0c-2.767-.453-4.205.7-4.711,3.373-.58,3.064-2.362,3.808-5.549,4.043-5.714.42-9.593-1.135-11.964-6.55-.981-2.241-2.816-4.108-5.12-7.354-1.147,3-2.255,4.984-2.614,7.093-.391,2.3-.089,4.719-.089,7.308l-4.707-.771Zm37.832,7.441-1.037-.209c-1.377,4.035-2.756,8.071-4.249,12.444h8.933c-1.287-4.318-2.466-8.277-3.647-12.235" transform="translate(-303.261 -2831)" fill="#161615"/>
    <path id="Trazado_50" data-name="Trazado 50" d="M276.919,685.97v11.107h-5.331c0-9.585-.084-19.247.145-28.9.021-.852,2.051-2.286,3.215-2.357a66.17,66.17,0,0,1,9.145.432c4.853.383,7.856,2.642,8.894,6.582,1.217,4.616-.09,7.981-4.246,10.924-.32.226-.655.431-1.257.826,1.763,3.077,3.557,5.835,4.937,8.787.61,1.3.38,3,.531,4.52-1.567-.712-3.562-1.045-4.606-2.221a27.346,27.346,0,0,1-4.176-6.733c-1.418-3.076-3.543-4.021-7.251-2.965m.184-15.762c-.172,2.2-.246,3.8-.431,5.38-.7,6,1.031,7.5,6.891,6.052,3.266-.806,4.525-2.964,4.5-6.117-.022-3.473-2.107-4.993-5.255-5.284-1.816-.169-3.66-.031-5.709-.031" transform="translate(-303.261 -2831)" fill="#161615"/>
    <path id="Trazado_51" data-name="Trazado 51" d="M195.544,681.908l3.6,6.591c.577-2.469.967-4.139,1.421-6.08H204.5c-.254,5.166-3.4,10.341,1.669,15.277l-1.9.732-5.641-2.508c-4.408,2.524-8.317,2.551-10.871-.107-2.794-2.909-2.967-8.175.3-12.06,1.977-2.35,1.58-3.964.391-6.328-2.55-5.064-1.319-9.538,2.647-11.264a6.516,6.516,0,0,1,7.941,1.716c2.442,2.6,2.112,5.664.617,8.516-.973,1.855-2.514,3.412-4.115,5.515m-2.882,3.644-1.394.152a41.281,41.281,0,0,0,.563,7.027c.094.409,2.667.248,4.961.411l-4.13-7.59m.433-8.2,1.194.125a29.269,29.269,0,0,0,1.487-5c.087-.68-.976-1.506-1.516-2.266-.687.63-1.944,1.253-1.951,1.891a29.934,29.934,0,0,0,.786,5.247" transform="translate(-303.261 -2831)" fill="#161615"/>
    <path id="Trazado_52" data-name="Trazado 52" d="M361.137,680.149c3.134-4.01,6.46-7.888,9.335-12.077,1.96-2.856,4.055-2.856,7.106-1.48-3.44,4.485-6.744,8.79-10.212,13.311,1.856,2.848,3.746,5.7,5.581,8.577,1.774,2.786,3.491,5.608,5.284,8.494-3.4,1.881-5.582,1.293-7.4-2.011-1.972-3.574-4.459-6.865-6.682-10.218-5.63,2.821-3.56,7.9-4.17,12.522l-4.273.957V665.918l4.478-.241v14.087l.958.385" transform="translate(-303.261 -2831)" fill="#161615"/>
    <path id="Trazado_53" data-name="Trazado 53" d="M349.74,682.089c0,1.465.035,2.932-.006,4.4-.169,6.09-3.076,9.678-8.874,10.991-6.115,1.386-11.922-.561-13.812-5.848-2.341-6.551-2.622-13.6.307-20.14,2.121-4.735,8.48-6.719,14.223-5.195a11.51,11.51,0,0,1,8.175,10.6c.085,1.73.155,3.461.232,5.191l-.245,0m-4.823-.036h-.037c0-2,.153-4.011-.033-5.992-.348-3.714-2.88-5.826-6.758-5.876s-7.292,2.324-7.459,5.732a75.471,75.471,0,0,0,.338,12.352c.471,4.062,3.677,6.233,7.622,5.822,4.027-.42,6.164-2.706,6.316-6.842.064-1.73.011-3.464.011-5.2" transform="translate(-303.261 -2831)" fill="#161615"/>
    <path id="Trazado_54" data-name="Trazado 54" d="M386.985,670.148v9.637c2.792,0,5.8-.055,8.8.016,2.954.07,2.953.126,2.222,4H386.835v9.725c3.879,0,7.547.094,11.206-.032,2.631-.091,3.327,1.075,2.587,3.861H381.891V666.046c5.864,0,11.672-.081,17.471.1.755.024,1.468,1.394,2.2,2.141-.894.621-1.763,1.728-2.687,1.777-3.828.2-7.673.085-11.89.085" transform="translate(-303.261 -2831)" fill="#161615"/>
    <path id="Trazado_55" data-name="Trazado 55" d="M322.887,696.8c-3.31,2.2-4.913,1.214-6.018-1.847-.6-1.649-1.487-4.264-2.588-4.454a29.885,29.885,0,0,0-9.885.133c-.966.163-1.816,2.466-2.268,3.927-.794,2.563-2.255,3.405-5.213,2.447a16.207,16.207,0,0,1,.492-3.193c3.024-8.464,6.054-16.928,9.269-25.319a5.224,5.224,0,0,1,2.949-2.616c.566-.2,2.153,1.054,2.495,1.949,3.671,9.6,7.185,19.262,10.767,28.973m-17.9-10.818h8.961L310.2,673.465l-.984-.115-4.236,12.636" transform="translate(-303.261 -2831)" fill="#161615"/>
    <path id="Trazado_56" data-name="Trazado 56" d="M178.472,556.582l5.523-.718c.2-.536.414-1.1.634-1.68a.553.553,0,0,1-.123-.518q.945-3.788,1.713-7.615c1.751-8.815,2.963-18.168,1.631-27.14-.094.216-.183.427-.278.644l-2.353-.983c.8-2.543,2-4.474,1.867-6.307-.464-6.325-1.491-12.606-2.111-18.923-.389-3.961-2.274-6.286-6.522-6.59q.137-.644.274-1.286h3.8c-23.35-64.3-104.9-63.892-134.812-33.812l2.758,5.431c-1.083,1.409-2.034,2.644-3.158,4.107a31.981,31.981,0,0,0-4.459-2.115c-.919-.29-2.507-.3-3.029.267a57.1,57.1,0,0,0-14.711,28.605c-.621,3.353-1.428,6.684-1.816,10.064-.414,3.6-.431,7.247-.628,10.99l9.644-5.691,1.089,1.041-2.171,6.33c-3.843-2.314-6.284-1.524-7.5,2.036a8.719,8.719,0,0,0-.291,3.927c1.812,12.638,6.6,24.009,15.065,33.636,17.834,20.286,40.719,27.674,67.008,25.107,6.264-.612,12.914-1.07,18.54-5.145,2.417-1.751,5.689-2.32,9.39-3.74a44.253,44.253,0,0,1-2.033,5.167c-5.635,9.917-10.828,20.136-17.132,29.613-13.622,20.481-30.49,38.293-47.629,55.829-1.1,1.122-2.036,2.4-3.659,4.328,2.834-.49,4.56-1.191,6.176-.993,4.618.567,9.35.416,13.829,1.121,3.877.61,5.564-.22,6.454-3.09,3.312,1.155,6.278,2.949,9.323,3.094,6.339.3,12.784-.686,18.548,3.027.118.076.458-.193.75-.326l.876-3.15h6.462c3.948-5.335,7.617-10.346,11.346-15.311,1.533-2.041,3.7-3.722,2.547-6.859-.207-.562.937-1.614,1.447-2.446.4-.659,1.064-1.3,1.136-2,.32-3.09,2.68-4.777,5.151-3.711-.649.96-1.7,1.893-1.839,2.947-.086.648,1.218,1.481,1.451,1.739L155.756,621l-5.079,3.2c-.1-.963-.377-1.606-.165-1.935,2.714-4.225,6.618-7.562,8.044-12.793.765-2.807,3.645-4.965,5.092-7.672,4.62-8.643,9.044-17.392,13.479-26.133,1.154-2.274,1.442-5.562,3.229-6.814,3.3-2.317,3.91-5.263,4.1-8.534l-5.978-2.461q-.006-.635-.011-1.269M32.763,526.936l-1.2-2.437q-2.829-.009-5.671-.006l-.262-.9,5.407-1.993c.1-1.148.2-2.154.392-4.318,2.057,2.263,3.491,3.842,4.846,5.334l-3.514,4.318m15.958-37.995c-.434.788-2.448.707-3.753,1.016q.878-3.053,1.753-6.1l2.475.352c-.1,1.608.228,3.457-.475,4.736M164.76,458.059c1.21,3.908-.285,5.761-4.222,6.462l-.928-.862,5.15-5.6m-19.609,16.308c.485-.181,2.929,2.429,2.695,3.237-.824,2.848.861,7.084-3.972,8.221,2.064,2.883,1.666,5.97-.949,7.746-.2-.662-.375-1.244-.555-1.824-.149-.481-.3-.959-.3-.948l-4.935-.643c.732-2.785,1.464-5.57,2.358-8.973L136.4,478.76a77.48,77.48,0,0,1,8.753-4.393M113.36,550.916c-.673-.286-1.317-2.427-1.209-2.494,1.721-1.083,3.567-1.968,5.385-2.9q.4.836.808,1.671c-2.577.241-.893,5.459-4.984,3.722m31.99-22.921a6.327,6.327,0,0,1-.919-1.373c-.748-2.382-2.629-2.5-4.017-1.279-2.843,2.5-5.5,2.072-8.507.238-2.015,1.709-4.021,3.442-6.061,5.135-16.83,13.972-50.378,8.045-56.423-18.215-3.137-13.629,2.943-27.862,15.706-35.3a37.459,37.459,0,0,1,49.544,10.934,56.45,56.45,0,0,0,4.121,4.73c0,2.1-.376,4.6.07,6.945a28.2,28.2,0,0,1-3.77,20.256,12.713,12.713,0,0,0-.869,3.535c1.264-.184,2.543-.3,3.789-.564,3.109-.661,5.3-5.061,8.9-2.486.227,2.029.427,3.806.677,6.041l-2.241,1.4m5.237-25.048c-1.064-.273-2.458.735-4.15,1.312-2.447-1.659-1.857-4.359-1.2-7.07.4-1.631.769-3.268,1.24-4.878.128-.439.555-1.092.872-1.108a2.12,2.12,0,0,1,1.642.615,5.728,5.728,0,0,1,.694,2.244c.96,5.611,1.1,5.75,6.555,5.511-1.23,2.771-2.666,4.142-5.654,3.374m16.29-7.244c-2.79-2.99-5.039-3.545-6.964.21l-5.268-5.287-2.657,3.633-2.388-4.628a32,32,0,0,0,4.6-1.3c.957-.423,2.356-1.356,2.383-2.1.088-2.5,1.459-3.23,3.534-3.364,2.276-.147,4.567-.374,5.588,2.493a88.335,88.335,0,0,0,3.457,8.668c.605,1.259,1.9,2.185,2.613,3.962-1.661-.736-3.757-1.065-4.9-2.287" transform="translate(-303.261 -2831)" fill="#d80010"/>
  </g>
</svg>
